<?xml version="1.0" encoding="UTF-8"?>
<svg id="Layer_1" data-name="Layer 1" xmlns="http://www.w3.org/2000/svg" viewBox="0 0 432.88 432.85">
  <defs>
    <style>
      .cls-1 {
        fill: #fff;
      }
    </style>
  </defs>
  <path class="cls-1" d="M432.66,244.05c-.93,7.41-5.53,15.85-9.79,21.91-21.27,30.23-49.94,58.55-72.18,88.41-14.54,12.75-32.43,21.07-51.93,22.44H48.58c-25.38-1.33-46.34-21.66-48.54-46.97l-.05-224.9c2.11-26.12,22.48-45.98,48.58-47.77,21.64-1.48,56.2-1.58,77.76.05s47.75,22.07,47.75,45.22v13.1l128.04-.03c20.81.37,46.02,24.42,46.02,45.26v41.85h50.28c14.82,0,32.32,16.66,34.22,31.28.3,2.33.29,7.81,0,10.14ZM319.43,202.62v-36.78c0-1.18-1.56-6.53-2.12-8.02-3.01-7.89-10.48-12.57-18.68-13.43l-134.28-.07c-9.18-.72-17.95-9.05-18.98-18.21-1.75-15.54,3.89-33.15-16.68-39.11H45.44c-8.52,1.43-16.68,12-16.68,20.51v193.18c2,.53,1.43-.52,1.93-1.08,19.31-21.63,36.15-47.25,55.55-68.64,10.74-11.84,34.71-28.34,51.1-28.34h182.09ZM141.81,231.62c-16.49,2.15-26.62,10.12-36.98,22.17-21.89,25.47-41.74,52.94-63.22,78.77-5.04,6.78-2.88,14.36,6.14,14.66h252.72c9.92-.66,19.07-5.34,26.98-11.04,22.26-28.42,50.34-56.84,70.92-86.29,7.11-10.17,8.54-17.1-6.66-18.56l-249.89.28Z"/>
</svg>