<?xml version="1.0" encoding="UTF-8"?>
<svg width="14" height="14"  id="Layer_1" data-name="Layer 1" xmlns="http://www.w3.org/2000/svg" viewBox="0 0 800 800">
  <defs>
    <style>
      .cls-1, .cls-2 {
        fill: #1d3b62;
      }

      .cls-2 {
        stroke: #1d3b62;
        stroke-width: 20px;
      }
    </style>
  </defs>
  <g id="Layer_2" data-name="Layer 2">
    <g id="icons_Q2" data-name="icons Q2">
      <path class="cls-2" d="M917.27-170.35l-475.61,475.61c-16.84,16.84-18.55,42.43-3.82,57.15,14.73,14.73,40.32,13.02,57.15-3.82L970.6-117.02"/>
    </g>
  </g>
  <path class="cls-1" d="M797.5,0h-287.66c-22.7.01-41.09,18.4-41.09,41.11,0,22.7,18.39,41.09,41.09,41.09h205.48s.01,205.49.01,205.49c0,22.7,18.39,41.09,41.09,41.09,22.7,0,41.09-18.39,41.09-41.09V0Z"/>
  <g id="Layer_2-2" data-name="Layer 2">
    <g id="icons_Q2-2" data-name="icons Q2">
      <path class="cls-2" d="M-118.9,970.38l475.58-475.58c16.84-16.84,18.55-42.42,3.82-57.15-14.73-14.73-40.32-13.02-57.15,3.82l-475.58,475.58"/>
    </g>
  </g>
  <path class="cls-1" d="M.86,800.03h287.66c22.7-.01,41.09-18.4,41.09-41.11,0-22.7-18.39-41.09-41.09-41.09H83.05s-.01-205.49-.01-205.49c0-22.7-18.39-41.09-41.09-41.09-22.7,0-41.09,18.39-41.09,41.09v287.69Z"/>
</svg>