<?xml version="1.0" encoding="UTF-8"?>
<svg id="Livello_1" data-name="Livello 1" xmlns="http://www.w3.org/2000/svg" viewBox="0 0 800 800">
  <defs>
    <style>
      .cls-1 {
        fill: #fff;
        fill-rule: evenodd;
      }

      .cls-2 {
        fill: none;
        stroke: #fff;
        stroke-linecap: round;
        stroke-miterlimit: 133.33;
        stroke-width: 83.33px;
      }
    </style>
  </defs>
  <path class="cls-2" d="M542.4,104.36l39.14,100.75c6.66,17.16-1.84,36.48-19,43.14l-100.75,39.14"/>
  <path class="cls-2" d="M253.85,683.7l-22.72-105.67c-3.87-18,7.58-35.72,25.58-39.59l105.67-22.72"/>
  <path class="cls-1" d="M563.84,262.25c24.49-12.08,31.99-43.72,11.59-61.88-25.87-23.02-56.68-41.36-91.54-53.19-139.46-47.34-290.89,27.34-338.23,166.8-11.83,34.86-16.04,70.46-13.52,105,1.99,27.24,31.66,40.55,56.15,28.48h0c17.48-8.62,26.55-27.85,26.51-47.34-.04-19.67,3.1-39.68,9.78-59.35,32.54-95.88,136.65-147.22,232.53-114.68,19.67,6.68,37.46,16.36,53.04,28.37,15.44,11.9,36.21,16.41,53.69,7.79h0ZM232.52,537.15c17.48-8.62,38.26-4.12,53.69,7.78,15.58,12.01,33.37,21.7,53.04,28.37,95.88,32.54,199.99-18.8,232.53-114.68,6.68-19.67,9.82-39.68,9.78-59.35-.04-19.49,9.03-38.72,26.51-47.34h0c24.49-12.08,54.16,1.24,56.15,28.48,2.52,34.54-1.69,70.14-13.52,105-47.34,139.46-198.77,214.14-338.23,166.8-34.86-11.83-65.67-30.17-91.54-53.19-20.4-18.15-12.9-49.8,11.59-61.88h0Z"/>
</svg>