<?xml version="1.0" encoding="UTF-8"?>
<svg id="Livello_1" data-name="Livello 1" xmlns="http://www.w3.org/2000/svg" viewBox="0 0 800 800">
  <defs>
    <style>
      .cls-1 {
        fill: #fff;
      }
    </style>
  </defs>
  <path class="cls-1" d="M763.23,466.25l-175.31,227.52-176.37-228.9,129.26,49.97V114.22c1.51-.47,3.27-.88,4.28-.98,20.47-1.88,68.22-2.22,87.07.01.64.1,1.79.47,2.88.91v400.57l128.19-48.47h0Z"/>
  <path class="cls-1" d="M401.04,320.03l-130.02-51.77v400.85c-.91.42-2.04.81-2.79.88-18.41,2.2-71.7,2.21-90.5,0-.35-.05-.66-.09-.93-.13v-401.55l-130.19,51.24L223.06,87.94s.09.04.13.06l177.85,232.01h0Z"/>
</svg>