<?xml version="1.0" encoding="UTF-8"?>
<svg width="14" height="14"  id="Layer_1" data-name="Layer 1" xmlns="http://www.w3.org/2000/svg" viewBox="0 0 800 800">
  <defs>
    <style>
      .cls-1 {
        stroke: #1d3b62;
        stroke-width: 20px;
      }

      .cls-1, .cls-2 {
        fill: #1d3b62;
      }
    </style>
  </defs>
  <g id="Layer_2" data-name="Layer 2">
    <g id="icons_Q2" data-name="icons Q2">
      <g>
        <path class="cls-1" d="M254.59,688.15V52.05c0-22.52-16.88-40.78-37.71-40.78s-37.71,18.26-37.71,40.78v636.1"/>
        <path class="cls-2" d="M444.41.5c-30.65,0-55.49,24.84-55.49,55.49s24.84,55.49,55.49,55.49h55.49c30.65,0,55.49-24.84,55.49-55.49S530.55.5,499.9.5h-55.49,0Z"/>
        <path class="cls-2" d="M633.02,55.99c0,30.65,24.84,55.49,55.49,55.49h55.49c30.65,0,55.49-24.84,55.49-55.49S774.65.5,744,.5h-55.49c-30.65,0-55.49,24.84-55.49,55.49Z"/>
      </g>
    </g>
  </g>
  <path class="cls-2" d="M418.37,596.08c16.05-16.05,16.05-42.06,0-58.11-16.05-16.05-42.06-16.05-58.11,0l-145.32,145.3-145.29-145.3c-16.05-16.05-42.06-16.05-58.11,0-16.05,16.05-16.05,42.06,0,58.11l203.4,203.42,203.43-203.42Z"/>
</svg>